<?xml version="1.0" encoding="UTF-8" standalone="no"?>
<!-- Created with Inkscape (http://www.inkscape.org/) -->

<svg
   version="1.1"
   id="svg1"
   width="607.92749"
   height="588.11066"
   viewBox="0 0 607.92749 588.11066"
   xmlns="http://www.w3.org/2000/svg"
   xmlns:svg="http://www.w3.org/2000/svg">
  <defs
     id="defs1" />
  <g
     id="g1"
     transform="translate(-202,-215.433)">
    <path
       style="fill:#ff7d01;fill-opacity:1"
       d="m 502,802.9153 c -32.11394,-2.16534 -66.16589,-11.07758 -97.3822,-25.48733 -48.28172,-22.2873 -90.16848,-57.76341 -121.78232,-103.14386 -6.32387,-9.07767 -6.81671,-10.16662 -6.82574,-15.08186 -0.0126,-6.83703 3.09115,-10.20738 9.38628,-10.19264 6.64248,0.0156 32.61757,4.76928 35.15896,6.43446 1.28499,0.84196 5.80979,5.89385 10.0551,11.22643 28.15989,35.37194 67.03525,63.79606 107.82476,78.8372 14.05256,5.18188 37.89367,11.02692 52.60774,12.89765 26.95299,3.42677 59.61763,1.54664 85.13247,-4.90012 25.16699,-6.35886 51.94367,-17.94807 72.62572,-31.43312 27.31634,-17.81072 53.53217,-43.42593 70.97531,-69.34923 C 747.94486,610.85954 761.83891,571.9545 766.10366,523 c 1.41147,-16.20205 0.61721,-46.18224 -1.60282,-60.5 C 760.35502,435.76211 750.49378,405.52068 739.22935,385 702.09914,317.35903 637.62388,272.50834 560,260.32334 c -15.7097,-2.46603 -50.86157,-2.4889 -66.51845,-0.0433 -35.63217,5.56577 -67.98848,17.95852 -96.83181,37.08742 C 335.63459,337.83274 294.86383,402.6222 282.98114,478 c -1.5134,9.60028 -2.66261,12.60429 -5.75136,15.03389 -3.03991,2.3912 -6.72907,2.46265 -18.25687,0.35361 -18.66324,-3.41448 -20.83986,-7.96518 -16.02696,-33.50773 C 250.97425,417.27285 266.38889,379.85722 291.51052,342 329.41114,284.88537 389.51355,241.49056 454,224.68024 c 58.6189,-15.28078 121.98765,-11.52261 177.5,10.52688 81.14047,32.22896 143.4167,100.20796 167.0003,182.29288 11.57102,40.27398 14.55825,88.46053 8.02811,129.5 -8.31151,52.23467 -31.14626,104.04728 -64.34483,146 -9.15894,11.57406 -36.56485,39.06827 -48.18358,48.33881 -12.08342,9.64131 -31.81896,22.62535 -45.11077,29.67843 C 602.50847,795.62842 553.0895,806.36011 502,802.9153 Z m 20.5,-78.95816 C 460.78751,719.3598 404.01836,676.10026 385.02284,619.19601 379.36269,602.24011 377.84027,591.87069 374.05607,544.5 c -3.80426,-47.62194 -5.02243,-64.0579 -5.66989,-76.5 -0.35775,-6.875 -0.98933,-13.13924 -1.40351,-13.92053 -0.41417,-0.78129 -3.10166,-2.02158 -5.97221,-2.75621 -6.85356,-1.75395 -10.37724,-4.38376 -12.92463,-9.64596 -2.48349,-5.1302 -2.66484,-11.36456 -0.53884,-18.52356 1.20906,-4.07138 2.43625,-5.85345 5.61806,-8.15834 2.23909,-1.62199 5.52908,-3.22259 7.31109,-3.5569 1.78201,-0.33431 10.84138,0.57671 20.13194,2.02448 9.29055,1.44777 22.88115,3.55914 30.20132,4.69193 7.32017,1.13279 13.54857,1.82045 13.84088,1.52814 0.29231,-0.29231 2.46159,-5.26749 4.82062,-11.05595 9.59915,-23.55385 21.53475,-40.88925 38.86917,-56.45398 33.61271,-30.18116 74.18449,-41.05001 116.33199,-31.16439 20.28348,4.75746 38.62127,15.35304 53.87908,31.13136 24.65178,25.49273 36.23752,54.96487 37.04039,94.22433 0.16719,8.17544 0.46183,15.02227 0.65476,15.2152 0.19292,0.19292 10.45393,1.95682 22.80224,3.91976 28.22612,4.48696 31.868,5.50259 35.80323,9.98456 4.23527,4.82372 5.40402,9.75156 4.05715,17.10642 -1.74637,9.53647 -6.48778,15.35012 -14.27191,17.49942 l -3.30559,0.91272 -13.78726,38.74875 C 699.96116,571.06306 692.50458,591.875 690.97397,596 c -1.53061,4.125 -5.34909,14.475 -8.48551,23 -6.74294,18.32776 -10.24141,25.24273 -19.22524,38 -8.72672,12.39217 -30.14388,33.74986 -41.26836,41.15376 -10.0693,6.70163 -25.92282,14.7928 -34.99486,17.86033 -9.49832,3.21168 -27.39924,6.8248 -37.07385,7.48298 -4.63438,0.31529 -10.45115,0.71541 -12.92615,0.88914 -2.475,0.17374 -9,-0.0193 -14.5,-0.42907 z m 37,-41.38554 c 3.85,-0.84813 9.96652,-2.5075 13.59226,-3.68749 C 581.36763,676.19091 596.5,668.83144 596.5,667.5 c 0,-0.93725 -17.78619,-4.18538 -51.5,-9.40496 -7.975,-1.23469 -32.95,-5.39616 -55.5,-9.2477 -22.55,-3.85155 -42.4625,-7.25171 -44.25,-7.55592 -1.7875,-0.30421 -3.25,-0.14466 -3.25,0.35456 0,1.70238 13.48022,14.16437 21.5,19.87599 14.97171,10.66273 32.7624,18.09955 51.5,21.52789 12.37134,2.26354 33.06337,2.04115 44.5,-0.47826 z M 635.7868,630.75 C 637.03919,629.2326 651,591.55515 651,589.69261 c 0,-1.26141 -16.63706,-4.23703 -93,-16.63352 -10.175,-1.65178 -29.75,-4.83107 -43.5,-7.06511 -13.75,-2.23403 -33.325,-5.40563 -43.5,-7.04799 -10.175,-1.64236 -26.9472,-4.39239 -37.27155,-6.11117 -10.32435,-1.71878 -19.06012,-2.83648 -19.41282,-2.48378 -0.81511,0.8151 2.54549,40.15347 3.68663,43.1549 1.09646,2.8839 -3.53271,1.92165 52.49774,10.91251 18.10498,2.9052 137.92224,23.07605 152,25.58871 12.62685,2.2537 12.0657,2.22233 13.2868,0.74284 z m 35.45961,-95 c 10.33199,-28.37662 11.12331,-30.90347 9.91218,-31.65199 -0.64759,-0.40023 -13.4357,-2.63959 -28.41802,-4.97636 C 637.75826,496.78489 602.55,491.10834 574.5,486.50709 c -28.05,-4.60124 -57.975,-9.48821 -66.5,-10.85992 -8.525,-1.37172 -34.25456,-5.67848 -57.1768,-9.5706 C 427.90096,462.18446 408.66346,459 408.0732,459 c -1.44678,0 -1.34436,6.85592 0.42577,28.5 1.0871,13.29239 1.85314,18.27936 2.92904,19.06817 0.80131,0.5875 5.19531,1.62923 9.76446,2.31496 7.29768,1.09522 33.82989,5.27555 51.30753,8.08385 3.3,0.53025 11.85,1.87366 19,2.98537 19.00095,2.95435 95.62676,15.4944 120,19.63838 11.55,1.96375 25.275,4.21252 30.5,4.99726 5.225,0.78474 11.525,1.82417 14,2.30984 10.89385,2.13771 10.23324,2.62073 15.24641,-11.14783 z M 635.30473,442.5 c -0.69534,-39.17059 -25.08815,-72.87675 -59.02069,-81.55523 -40.89578,-10.45938 -84.30405,11.51401 -105.74149,53.52664 -5.49917,10.77717 -5.6458,12.25074 -1.29255,12.9895 1.7875,0.30335 33.85,5.5487 71.25,11.65634 37.4,6.10763 72.725,11.91288 78.5,12.90055 5.775,0.98766 11.85,1.72521 13.5,1.63898 l 3,-0.15678 z M 318.5,623.49761 c -11,-1.80493 -23.375,-3.81712 -27.5,-4.47152 -23.28344,-3.69375 -46.37929,-8.17087 -48.91505,-9.48216 C 236.57367,606.69394 235,603.52754 235,595.28822 c 0,-6.86184 0.22391,-7.66597 2.87187,-10.31393 1.57952,-1.57953 4.10491,-3.18134 5.61197,-3.55959 5.26466,-1.32135 100.59649,14.28138 105.03748,17.19122 3.0447,1.99497 4.43053,6.16861 5.16282,15.54867 0.56895,7.28792 0.47325,7.77893 -1.99783,10.25 -3.42891,3.42892 -7.42756,3.31964 -33.18631,-0.90698 z m 8.5,-61.02907 c -4.125,-0.70821 -18.075,-2.93638 -31,-4.95149 -56.49828,-8.80856 -84.72748,-13.64353 -87.80528,-15.03891 C 204.05331,540.60056 202,535.96153 202,528.48246 202,519.30691 206.38159,514 213.95726,514 c 3.55985,0 71.56297,9.73427 93.54274,13.39013 8.25,1.37221 18.56925,3.01398 22.93166,3.64837 12.08728,1.75777 13.39831,3.13528 15.55033,16.33894 1.35645,8.32243 0.68752,11.95076 -2.69363,14.61037 -2.88258,2.26745 -5.44162,2.34297 -16.28836,0.48073 z"
       id="path1" />
  </g>
</svg>
