<?xml version="1.0" encoding="UTF-8" standalone="no"?>
<!-- Created with Inkscape (http://www.inkscape.org/) -->

<svg
   version="1.1"
   id="svg1"
   width="826.92676"
   height="862.20551"
   viewBox="0 0 826.92676 862.20551"
   xmlns="http://www.w3.org/2000/svg"
   xmlns:svg="http://www.w3.org/2000/svg">
  <defs
     id="defs1" />
  <g
     id="g1"
     transform="translate(-597.97974,-272.32233)">
    <path
       style="fill:#bf642e;fill-opacity:1"
       d="m 1008.6942,1133.5714 c -1.6318,-0.9504 -1.75,-4.5922 -1.75,-53.8981 0,-46.7384 0.1825,-53.0614 1.5714,-54.4503 1.9483,-1.9483 4.8076,-2.0246 6.3473,-0.1694 0.8573,1.033 1.1154,15.1521 0.9804,53.642 -0.1733,49.439 -0.2828,52.3396 -2.0411,54.098 -2.114,2.114 -2.6689,2.1985 -5.108,0.7778 z m 48.8439,-53.816 c -0.8766,-0.9687 -1.6018,-3.0759 -1.6114,-4.6826 -0.01,-1.6067 -0.6898,-6.9713 -1.5116,-11.9213 -3.742,-22.5393 -6.3533,-41.6429 -5.8658,-42.9134 0.7649,-1.9932 4.0094,-2.5889 6.0348,-1.1079 1.3117,0.9591 2.3026,5.1265 4.0766,17.1442 5.12,34.6857 5.9866,42.3807 4.8689,43.2361 -2.4127,1.8463 -4.4662,1.9302 -5.9915,0.2449 z m 3.609,-4.566 c -0.3592,-0.5708 -0.5171,-1.8629 -0.351,-2.8713 0.1662,-1.0084 -0.5201,-2.4566 -1.5249,-3.2182 -1.0049,-0.7616 -1.4344,-1.3991 -0.9546,-1.4165 0.4799,-0.018 0.2761,-0.7504 -0.4527,-1.6286 -1.1182,-1.3474 -1.0559,-1.7475 0.3986,-2.5615 0.948,-0.5306 1.4627,-1.387 1.1437,-1.9032 -0.9165,-1.4829 -2.462,-1.0934 -2.462,0.6205 0,0.879 -0.4797,1.2625 -1.0998,0.8793 -0.7917,-0.4893 -0.8033,-0.1258 -0.041,1.2979 0.5821,1.0877 1.1895,4.2758 1.3498,7.0846 0.2599,4.5546 0.527,5.088 2.4693,4.931 1.2297,-0.1 1.8936,-0.628 1.525,-1.214 z m -4.8214,-15.0898 c 0.3415,-0.8899 0.1739,-1.2913 -0.393,-0.941 -0.5437,0.3361 -0.9885,1.0344 -0.9885,1.552 0,1.4384 0.7168,1.1214 1.3815,-0.611 z m -96.18149,19.3519 c -0.66,-0.66 -1.1891,-2.5725 -1.1758,-4.25 0.038,-4.8425 7.4201,-54.9155 8.2997,-56.3 1.2614,-1.9854 5.481,-1.4829 6.7018,0.7981 0.7765,1.4509 0.7964,3.5649 0.068,7.25 -0.9939,5.0299 -7.0939,47.6903 -7.0939,49.6111 0,1.3579 -2.9204,4.0908 -4.3714,4.0908 -0.6758,0 -1.7686,-0.54 -2.4286,-1.2 z m -43.45,-6.8801 c -0.9625,-0.5606 -1.75,-1.9311 -1.75,-3.0456 0,-2.096 11.0038,-47.2939 13.2379,-54.3743 1.4587,-4.6232 4.363,-5.7034 7.1259,-2.6504 1.6784,1.8545 1.6065,2.4883 -1.6774,14.794 -1.887,7.071 -5.1231,19.7465 -7.1913,28.1677 -3.3665,13.707 -5.1983,18.2533 -7.3165,18.1583 -0.3733,-0.017 -1.4661,-0.489 -2.4286,-1.0497 z m 10.25,-37.7532 c 0,-0.4583 -0.6552,-0.8333 -1.456,-0.8333 -0.8008,0 -1.2243,0.375 -0.941,0.8333 0.2833,0.4583 0.9385,0.8333 1.456,0.8333 0.5175,0 0.941,-0.375 0.941,-0.8333 z m 173.58849,37.9765 c -0.2913,-0.4712 -2.3158,-7.7837 -4.499,-16.25 -2.1832,-8.4662 -5.5157,-21.2863 -7.4055,-28.489 -2.361,-8.9984 -3.1464,-13.6134 -2.5103,-14.75 0.9515,-1.7003 4.497,-2.193 6.3962,-0.8888 0.5885,0.404 4.3379,13.4077 8.3322,28.8969 5.904,22.8954 7.0532,28.5527 6.1449,30.25 -1.1199,2.0925 -5.4196,2.912 -6.4585,1.2309 z m -226.59049,-13.6456 c -1.8249,-2.1989 -1.0384,-4.886 8.9812,-30.6842 10.5603,-27.1903 11.0268,-28.1908 13.3532,-28.63886 2.2709,-0.4373 4.6676,1.55966 4.6676,3.88916 0,1.5353 -5.8315,16.982 -18.4525,48.8778 -3.1789,8.0337 -5.7115,9.9757 -8.5495,6.5561 z m 268.55129,-0.782 c -0.8233,-1.2564 -4.9018,-11.2689 -9.0635,-22.25 -4.1617,-10.981 -8.6735,-22.4968 -10.0262,-25.5906 -1.3528,-3.0938 -2.4596,-6.3012 -2.4596,-7.1276 0,-2.1812 2.5428,-3.95136 5.1341,-3.57406 1.8892,0.27506 3.168,2.69936 8.0847,15.32666 15.8448,40.6938 15.9134,40.8937 14.8446,43.25 -1.3167,2.9031 -4.6008,2.8857 -6.5141,-0.034 z m -4.8633,-29.8702 c -0.011,-0.971 -0.575,-1.4415 -1.364,-1.1387 -0.7926,0.3042 -1.202,-0.043 -0.9973,-0.8453 0.1911,-0.7487 0.1578,-1.021 -0.074,-0.6051 -0.2319,0.4159 -0.9456,0.4624 -1.5861,0.1033 -0.7486,-0.4197 -0.718,-0.1718 0.085,0.6937 1.3756,1.4821 1.7119,3.3503 0.4643,2.5792 -0.4322,-0.2671 -0.7857,0.3483 -0.7857,1.3675 0,1.0193 0.3535,1.6347 0.7857,1.3676 0.4321,-0.2671 0.7857,0.091 0.7857,0.7959 0,0.7049 0.6087,0.3939 1.3527,-0.6909 0.744,-1.0849 1.344,-2.7171 1.3333,-3.6272 z m -2.686,2.2137 c 0,-0.5176 0.4448,-1.2159 0.9885,-1.552 0.5669,-0.3503 0.7345,0.051 0.393,0.941 -0.6647,1.7324 -1.3815,2.0494 -1.3815,0.611 z m 45,8.9409 c -1.1,-1.1 -2,-2.489 -2,-3.0867 0,-0.5977 -3.5444,-7.4602 -7.8764,-15.25 -10.8643,-19.536 -11.4467,-20.737 -9.9046,-20.4236 0.8139,0.1654 1.2824,-0.8335 1.2848,-2.73966 0,-1.65 0.3866,-3.5955 0.8544,-4.3234 1.1218,-1.7453 1.0697,-1.8259 14.6055,22.59646 10.9898,19.8288 11.2005,20.3274 9.6131,22.75 -1.9647,2.9986 -3.9138,3.14 -6.5768,0.4769 z m -10.9146,-32.4472 c 1.3736,0.849 1.0999,-0.1541 -0.3765,-1.3793 -0.9854,-0.8179 -1.3163,-0.551 -1.398,1.1275 -0.059,1.2095 0.1105,1.6337 0.3764,0.9428 0.2659,-0.6909 0.8951,-1.0019 1.3981,-0.691 z m -5.0854,-3.5528 c -2.0524,-0.6572 -1.3024,-1.4471 1.1072,-1.166 1.2141,0.1417 0.031,-4.83846 -1.5171,-6.38666 -1.7088,-1.7087 -1.9062,-1.1161 -0.6767,2.031 0.489,1.2517 0.2762,2.47496 -0.5794,3.33056 -1.7483,1.7483 -0.8092,3.2181 1.975,3.0915 2.0396,-0.093 2.0182,-0.155 -0.309,-0.9004 z m -328.75699,35.843 c -2.2799,-2.2799 -3.183,-0.3115 20.4574,-44.58636 3.0082,-5.6339 5.9068,-10.5138 6.4414,-10.8442 1.553,-0.9598 5.5817,0.4248 6.2419,2.1452 0.3548,0.9244 -2.0547,6.6065 -5.8342,13.7586 -21.7321,41.12446 -21.1754,40.17226 -23.6667,40.47676 -1.3183,0.1612 -2.9562,-0.2663 -3.6398,-0.95 z m -106.5188,-17.9774 c -3.6142,-2.0226 -1.8298,-5.0733 9.9342,-16.984 6.4122,-6.49206 12.1067,-11.52676 12.6545,-11.18816 0.5479,0.3386 0.7161,0.1626 0.3739,-0.3912 -0.3423,-0.5537 10.731,-12.6215 24.6072,-26.8172 23.6844,-24.2298 25.3665,-25.737 27.4677,-24.6125 2.6749,1.4316 2.9188,4.8493 0.4883,6.8415 -0.9625,0.7889 -1.273,1.2023 -0.6901,0.9187 0.5829,-0.2836 -3.6458,4.3937 -9.397,10.394 -5.7513,6.0003 -10.8519,10.6656 -11.3346,10.3672 -0.4828,-0.2984 -0.7542,-0.1129 -0.603,0.4123 0.3016,1.048 -47.2561,49.60476 -50.0472,51.09856 -1.0726,0.574 -2.3847,0.5591 -3.4539,-0.039 z m 13.2758,-12.4732 c 0,-0.8276 -1.9417,-1.2957 -2.3869,-0.5753 -0.2888,0.4673 0.1301,0.8496 0.9309,0.8496 0.8008,0 1.456,-0.1234 1.456,-0.2743 z m -2.8724,-2.1424 c 1.2439,-1.586 1.2085,-1.6214 -0.3776,-0.3775 -1.6657,1.3064 -2.1954,2.1275 -1.3724,2.1275 0.2076,0 0.9951,-0.7875 1.75,-1.75 z m 537.80689,2 c -22.1637,-22.66716 -58.4007,-60.48806 -59.6349,-62.24126 -0.954,-1.355 -0.891,-2.147 0.3067,-3.8569 2.2011,-3.1426 5.7514,-2.7064 8.938,1.0982 1.4972,1.7875 17.3997,18.4846 35.3389,37.1045 17.9392,18.62 33.0183,34.69676 33.509,35.72616 0.5882,1.234 0.4613,2.391 -0.3725,3.3955 -2.7839,3.3545 -5.4417,1.7047 -18.0852,-11.2262 z m -478.73449,6.55 c -0.66,-0.66 -1.2,-1.8265 -1.2,-2.5922 0,-1.988 3.5814,-6.2782 4.5276,-5.4238 0.4362,0.3938 0.5216,0.238 0.1897,-0.3463 -0.7965,-1.4025 2.691,-6.6737 3.7683,-5.6957 0.4593,0.4169 0.5493,0.2569 0.2001,-0.3555 -0.3493,-0.6125 4.4788,-8.48746 10.7292,-17.49996 11.9934,-17.2937 14.016,-19.8865 15.5137,-19.8865 1.5888,0 4.0714,3.0521 4.0714,5.0054 0,1.0244 -3.9612,7.4048 -8.8027,14.1786 -4.8415,6.7738 -10.7589,15.241 -13.1498,18.81596 -9.3743,14.0169 -12.7185,16.929 -15.8475,13.8 z m 414.35249,-7.05 c -3.0982,-4.5375 -10.3403,-14.77496 -16.0938,-22.74996 -5.7534,-7.975 -10.7569,-15.1236 -11.1189,-15.8859 -1.0316,-2.1725 1.0799,-4.5886 4.261,-4.8756 2.605,-0.235 3.4225,0.5261 8.056,7.5 2.8362,4.2688 9.7372,14.2374 15.3355,22.1523 11.9613,16.91076 12.7916,18.45966 11.0323,20.57956 -2.874,3.4629 -5.6158,1.8567 -11.4721,-6.7204 z m -58.0677,-15.14826 c -2.5074,-4.656 -1.4224,-8.6017 2.3653,-8.6017 2.6288,0 3.486,0.9006 5.843,6.1388 0.1581,0.3513 -1.2242,1.7917 -3.0718,3.2009 l -3.3592,2.5622 z m -152.4913,-29.536 c -9.21519,-2.8031 -17.02959,-11.0816 -20.14639,-21.343 -1.8934,-6.2337 -2.0696,-8.5293 -1.5265,-19.885 0.3378,-7.0607 0.4398,-12.8377 0.2267,-12.8377 -0.213,0 -5.9359,1.6027 -12.7173,3.5614 -18.3151,5.2902 -21.3238,5.7277 -27.3454,3.9772 -11.9289,-3.4678 -18.4816,-12.1846 -18.4467,-24.5386 0.023,-8.1142 2.8773,-14.1738 8.8133,-18.7106 4.6706,-3.5696 10.0208,-5.3553 34.1488,-11.3978 9.075,-2.2727 16.7996,-4.4156 17.1657,-4.7619 0.3661,-0.3463 0.9931,-14.12448 1.3932,-30.61828 l 0.7274,-29.9885 -3.0404,2.4885 c -1.6723,1.3688 -6.3492,5.3256 -10.3932,8.7931 -10.9375,9.3783 -31.7066,22.7889 -45.3233,29.2652 -15.5063,7.3749 -34.0322,13.32418 -48.5294,15.58428 -16.8742,2.6307 -44.4934,2.4468 -61.0035,-0.4062 -12.4569,-2.1526 -24.2259,-5.30228 -29.0173,-7.76588 -11.0223,-5.6676 -15.3087,-20.4077 -9.3889,-32.2871 3.0447,-6.1099 8.0394,-10.5399 14.2819,-12.6669 6.2983,-2.1461 9.0186,-1.9478 22.6278,1.649 11.4899,3.0368 12.8502,3.1748 32,3.2473 15.7836,0.06 21.792,-0.308 28.5,-1.7447 17.3191,-3.7094 33.2968,-10.524 49.5,-21.1123 9.1322,-5.9676 27.9235,-21.1945 34.2981,-27.7923 l 4.298,-4.4486 -2.7151,-4.14694 c -1.7073,-2.60776 -3.117,-3.84009 -3.7981,-3.32016 -3.5696,2.72535 -27.635,10.3675 -42.5829,13.5225 -51.1638,10.7989 -102.8172,2.2981 -143.1801,-23.56373 -14.0577,-9.00723 -19.414,-17.28669 -18.5919,-28.73837 1.0839,-15.09881 12.524,-26.09316 27.3937,-26.32637 5.7856,-0.0907 6.8289,0.29326 19,6.99304 26.3999,14.53219 44.1302,19.19923 73.0776,19.2358 29.3423,0.0371 60.1139,-9.16186 91.0507,-27.21893 6.7375,-3.93252 12.25,-7.53337 12.25,-8.00189 0,-0.46853 -1.4625,-0.62627 -3.25,-0.35054 -41.5248,6.40538 -91.4147,2.18024 -126.75,-10.73436 -27.1948,-9.93937 -53.474,-24.71852 -60.3001,-33.91213 -10.0485,-13.53359 -3.3012,-33.46847 12.9872,-38.37056 9.8019,-2.94993 14.6016,-1.63842 28.9421,7.90848 21.6254,14.39658 46.5597,23.42543 75.2344,27.24283 14.0137,1.86561 44.4728,1.84279 60.1662,-0.0451 19.1506,-2.30374 16.9702,-0.0604 16.9702,-17.45993 0,-8.20706 -0.3375,-15.12402 -0.75,-15.37103 -0.4125,-0.247 -3,-0.0797 -5.75,0.37169 -2.75,0.45144 -14.7108,1.38325 -26.5794,2.0707 -46.2838,2.68081 -84.4154,-2.47134 -119.3339,-16.12381 -14.8009,-5.78684 -20.3018,-11.69888 -21.3074,-22.89966 -0.7592,-8.45682 1.0193,-13.41052 7.032,-19.5863 4.1409,-4.25316 6.3754,-5.6714 11.0649,-7.02309 7.4012,-2.1333 11.0007,-1.57843 23.4285,3.61149 20.715,8.65074 42.3169,12.74098 71.6953,13.5753 18.3707,0.52171 46.4361,-1.10247 57.5868,-3.33262 l 2.8443,-0.56885 0.2844,-37.13189 c 0.2775,-36.22019 0.3398,-37.24424 2.5393,-41.70746 7.3328,-14.88056 22.48289,-21.90434 37.70299,-17.47972 7.8322,2.27689 16.3826,10.57408 19.4178,18.8428 1.9875,5.41469 2.1244,7.69298 2.1244,35.36663 v 29.57912 l 2.25,-0.61687 c 1.2375,-0.33927 8.8825,-2.26448 16.9889,-4.27823 13.7783,-3.42271 15.0934,-3.58205 20.1762,-2.44458 7.5364,1.68659 12.7843,5.7707 16.0858,12.51869 2.3724,4.84916 2.6718,6.49673 2.3474,12.9202 -0.3059,6.05804 -0.9071,8.2281 -3.3933,12.2496 -4.3204,6.98807 -9.9165,9.48179 -35.205,15.68804 l -21.25,5.21513 v 11.00738 c 0,6.05406 -0.3007,19.53046 -0.6648,29.94756 l -0.6619,18.94018 8.9148,-7.7604 c 20.3011,-17.67245 48.043,-33.67238 72.0147,-41.53395 21.3729,-7.00929 31.7236,-8.58493 56.4,-8.58551 22.7659,-5.3e-4 29.0143,0.76001 50.4628,6.14222 21.2409,5.33011 28.5316,11.99225 28.7339,26.2564 0.2484,17.51904 -15.3992,29.48948 -32.1967,24.63049 -25.605,-7.40674 -28.7182,-7.94054 -46.5,-7.97315 -18.5293,-0.034 -26.3983,1.16981 -41.901,6.41006 -24.184,8.17474 -48.0624,23.64238 -68.4417,44.33432 l -6.3427,6.44 1.7199,3.37958 c 0.9459,1.85877 1.8458,3.52526 1.9997,3.70331 0.154,0.17806 1.595,-0.35632 3.2024,-1.18751 5.4006,-2.79276 25.9258,-9.45414 35.5657,-11.54269 19.2985,-4.18119 29.6779,-5.29914 49.1977,-5.29904 19.7443,1.1e-4 31.5849,1.32056 48.4276,5.40057 26.5885,6.44086 57.7701,22.95147 65.0626,34.4505 10.3315,16.29117 2.6776,36.61596 -15.8131,41.99136 -8.7438,2.5419 -13.8725,1.3512 -26.1771,-6.0773 -23.7491,-14.33759 -42.478,-19.60705 -69.7234,-19.61695 -24.4435,-0.009 -43.9147,4.17101 -68.7766,14.76435 -12.615,5.3751 -32.7466,16.3562 -38.4167,20.955 -1.5098,1.2246 1.9296,1.1188 10.9988,-0.3382 16.2944,-2.6179 54.0608,-2.3459 72.6649,0.5234 34.6847,5.3492 62.8571,15.3891 89.6565,31.9511 5.0031,3.0919 11.2075,7.7292 13.7876,10.3051 10.7479,10.7306 9.8692,27.4344 -1.9279,36.6461 -4.8652,3.7989 -9.2732,5.2505 -15.9446,5.2505 -6.8182,0 -10.032,-1.3695 -22.1582,-9.4422 -17.9999,-11.983 -38.8085,-20.3707 -60.706,-24.4698 -26.7656,-5.0105 -50.2527,-5.2898 -80.7044,-0.9599 l -7.75,1.102 v 15.3849 c 0,8.4617 0.1125,15.3841 0.25,15.3831 0.1375,-0.001 6.55,-0.6712 14.25,-1.4893 25.775,-2.7385 63.4312,-1.8761 88.7757,2.0331 23.8727,3.68208 50.6538,12.28718 60.8608,19.55528 6.5064,4.633 9.6022,17.1004 6.7748,27.2835 -1.6691,6.0112 -9.3813,13.1186 -16.4718,15.1799 -7.4991,2.18 -12.9299,1.4951 -22.9766,-2.8977 -14.3136,-6.2585 -30.1965,-10.3159 -49.8129,-12.7252 -11.9013,-1.4618 -59.7352,-0.6016 -72.65,1.3065 l -8.5,1.2558 -0.5483,21.4999 c -0.4532,17.7714 -0.8695,22.2805 -2.4008,26 -5.5193,13.407 -16.1338,21.0449 -29.0509,20.9043 -3.85,-0.042 -8.1279,-0.4193 -9.5065,-0.8386 z m 19.7299,-230.70969 c 4.4912,-2.56191 8.5885,-8.49745 9.7677,-14.15013 2.3767,-11.39298 -9.1552,-25.20585 -21.0435,-25.20585 -3.9977,0 -10.89079,3.03761 -14.27919,6.29253 -4.7753,4.58708 -6.4805,8.42886 -6.5282,14.70747 -0.127,16.72411 17.38219,26.74177 32.08319,18.35598 z M 733.59921,949.82284 c -0.9102,-1.0058 -1.655,-2.5232 -1.655,-3.3719 0,-0.8488 8.4992,-8.356 18.887,-16.6827 10.3879,-8.3266 19.4633,-15.8338 20.1678,-16.6826 2.2002,-2.6511 4.7753,-3.5954 6.8203,-2.5009 2.8032,1.5002 3.3048,4.887 1.0567,7.1351 -3.7365,3.7365 -42.1093,33.9317 -43.1212,33.9317 -0.2753,0 -1.2453,-0.8229 -2.1556,-1.8287 z m 542.11659,-5.9213 c -5.1441,-4.2625 -14.8471,-12.2395 -21.5623,-17.7268 -6.9209,-5.6554 -12.2093,-10.7139 -12.2093,-11.6786 0,-2.0406 2.6064,-4.8446 4.5032,-4.8446 0.7483,0 6.0036,3.9466 11.6786,8.7701 5.675,4.8235 15.1211,12.7339 20.9913,17.5785 5.8702,4.8446 10.8988,9.3964 11.1746,10.1151 0.6429,1.6756 -2.0363,5.5363 -3.8421,5.5363 -0.7596,0 -5.5898,-3.4875 -10.734,-7.75 z m 23.6332,-38.867 c -33.7203,-21.7574 -33.4048,-21.5326 -33.4048,-23.8096 0,-2.387 1.7228,-4.5734 3.6037,-4.5734 0.6621,0 8.1096,4.4251 16.55,9.8334 32.2457,20.6622 32.7948,21.061 32.831,23.8452 0.017,1.3136 -2.6984,4.3214 -3.9014,4.3214 -0.4256,0 -7.4809,-4.3276 -15.6785,-9.617 z m -593.20479,7.417 c -1.7156,-1.7156 -1.4815,-4.253 0.55,-5.9626 0.9625,-0.8099 4.9,-3.3795 8.75,-5.7102 3.85,-2.3308 10.6,-6.5156 15,-9.2997 4.4,-2.7841 7.4375,-4.4693 6.75,-3.7448 -1.9042,2.0067 -1.4904,3.4337 0.5,1.7244 2.676,-2.2981 4.6877,-3.3243 3.8455,-1.9616 -0.8652,1.4 0.3558,1.4785 2.4045,0.1545 1.2529,-0.8097 1.1705,-0.9978 -0.5,-1.1422 -1.1,-0.095 -2.6105,-0.144 -3.3566,-0.1087 -1.624,0.077 -1.2022,-0.3031 5.7202,-5.1519 4.0538,-2.8396 5.9701,-3.6048 7.8475,-3.1336 2.075,0.5208 2.3789,1.0417 1.8463,3.1637 -0.4737,1.8877 -0.3061,2.3684 0.6525,1.8714 3.4528,-1.7902 -5.6658,5.4446 -10.7148,8.5013 -3.1797,1.925 -12.3164,7.6625 -20.3037,12.75 -7.9873,5.0875 -15.2579,9.25 -16.1569,9.25 -0.899,0 -2.1745,-0.54 -2.8345,-1.2 z m 20.3648,-11.6952 c -0.3043,-0.4923 0.1191,-1.1532 0.941,-1.4686 0.8218,-0.3154 1.4587,-1.15 1.4153,-1.8548 -0.057,-0.931 -0.2118,-0.955 -0.5646,-0.087 -0.2671,0.6566 -1.129,0.9469 -1.9153,0.6452 -0.7863,-0.3017 -1.1377,-1.021 -0.7809,-1.5984 0.3821,-0.6182 0.1674,-0.7523 -0.5221,-0.3261 -0.6439,0.398 -1.0078,1.03 -0.8087,1.4045 0.1992,0.3745 0.6424,1.4684 0.985,2.4309 0.3425,0.9625 0.8884,1.75 1.2132,1.75 0.3247,0 0.3414,-0.4028 0.037,-0.8952 z m 8.1644,-5.709 c -0.3323,-0.3323 -1.1948,-0.3678 -1.9167,-0.079 -0.7977,0.3193 -0.5607,0.5562 0.6042,0.6042 1.0542,0.043 1.6448,-0.1929 1.3125,-0.5252 z m 5.7708,-5.3958 c 0.3399,-0.55 0.1415,-1 -0.441,-1 -0.5824,0 -1.059,0.45 -1.059,1 0,0.55 0.1985,1 0.441,1 0.2426,0 0.7191,-0.45 1.059,-1 z m 7.5,-5.5 c -0.997,-1.2014 -0.9882,-1.5 0.044,-1.5 0.709,0 1.0191,-0.2701 0.689,-0.6001 -0.3301,-0.3301 -1.0604,-0.3157 -1.623,0.032 -1.2176,0.7525 -0.3345,3.5681 1.1192,3.5681 0.5853,0 0.4882,-0.6354 -0.2294,-1.5 z m 562.74999,-22.1551 c -23.705,-12.01418 -24.75,-12.66548 -24.75,-15.42528 0,-5.8127 2.9651,-5.0115 28.1539,7.60818 12.8404,6.433 24.1336,12.3907 25.0961,13.2393 2.9924,2.6383 1.5597,7.3123 -2.2,7.1772 -0.8525,-0.031 -12.6875,-5.7003 -26.3,-12.5994 z m -628.36589,10.2135 c -1.4795,-3.8555 0.3304,-5.1675 23.1159,-16.7555 27.7045,-14.08958 27.9653,-14.19478 30.0389,-12.12118 2.7724,2.7725 1.353,5.6083 -4.3321,8.65488 -4.4708,2.3958 -5.5584,2.6364 -7,1.5482 -1.4574,-1.1001 -1.5204,-1.0798 -0.431,0.1392 1.0805,1.209 -1.6547,2.8469 -17.872,10.7018 -10.5313,5.1008 -20.007,9.2742 -21.0571,9.2742 -1.0502,0 -2.1584,-0.6487 -2.4626,-1.4416 z m 17.6868,-6.8084 c 0.7992,-0.6875 1.2793,-1.1566 1.067,-1.0425 -0.2124,0.1141 -1.2541,-0.7859 -2.3149,-2 l -1.9287,-2.2075 0.5967,2.1758 c 0.4074,1.4855 0.028,2.5069 -1.1971,3.2196 -1.665,0.9688 -1.646,1.046 0.265,1.0742 1.1324,0.017 2.7128,-0.5321 3.512,-1.2196 z m 1.3241,-3.9199 c -0.4816,-0.7793 -0.1844,-0.9633 0.8901,-0.551 1.1419,0.4383 1.4478,0.1884 1.0472,-0.8555 -0.4352,-1.1343 -0.8851,-1.2097 -1.9491,-0.3267 -1.6411,1.3621 -1.8132,2.9031 -0.3242,2.9031 0.5825,0 0.7337,-0.5265 0.336,-1.1699 z m 3.7291,-2.0968 c -0.9876,-0.9802 -1.1025,-0.8654 -0.5598,0.5598 0.3756,0.9863 0.9347,1.5413 1.2426,1.2334 0.3079,-0.3079 6e-4,-1.1148 -0.6828,-1.7932 z m -40.9241,-29.93328 c -1.5624,-1.5624 -1.536,-4.4645 0.05,-5.491 0.6875,-0.4449 12.9099,-4.9486 27.1608,-10.0082 27.2738,-9.6831 29.5892,-10.0656 29.5892,-4.8881 0,3.126 -1.1162,3.865 -10.5034,6.9538 -8.4555,2.7823 -12.2965,3.443 -9.4966,1.6335 0.9176,-0.5929 1.0339,-0.9753 0.2997,-0.9847 -0.6601,-0.01 -1.5601,0.594 -2,1.3387 -1.172,1.9845 -3.8463,3.1962 -18.021,8.1658 -13.7726,4.8286 -15.2471,5.1118 -17.0787,3.2802 z m 671.79999,-4.9368 c -9.075,-3.2673 -20.55,-7.3981 -25.5,-9.1797 -7.6079,-2.7383 -9.0178,-3.5889 -9.1153,-5.4991 -0.063,-1.2428 0.7701,-2.8799 1.8522,-3.6378 2.4078,-1.6865 2.861,-1.5592 33.139,9.3035 12.7254,4.5655 22.2592,8.5333 22.7922,9.4859 1.445,2.5821 -0.7564,5.6814 -3.9533,5.5658 -1.4931,-0.054 -10.1398,-2.7714 -19.2148,-6.0386 z m -683.79999,-40.0632 c -2.0121,-2.0121 -1.4301,-5.7505 1.05,-6.7456 1.2375,-0.4965 13.8731,-3.4375 28.079,-6.5355 27.7331,-6.048 29.1078,-6.0772 28.4716,-0.6045 -0.228,1.9614 -0.8383,2.5571 -2.5279,2.4677 -1.2251,-0.065 -2.0088,0.2358 -1.7417,0.668 0.5068,0.8201 -7.3502,2.8151 -23.6247,5.9988 -5.2766,1.0322 -13.7093,2.7935 -18.7394,3.9139 -10.8093,2.4078 -9.4965,2.3076 -10.9669,0.8372 z m 696.79999,-7.9329 c -9.625,-2.1742 -21.2799,-4.7212 -25.8998,-5.6601 -9.0454,-1.8382 -11.5685,-3.6941 -9.4581,-6.957 1.7719,-2.7396 9.0906,-1.9134 35.255,3.9799 24.435,5.5039 26.9591,6.5878 24.4969,10.5201 -1.6822,2.6867 -5.4526,2.3957 -24.394,-1.8829 z M 599.19421,723.96577 c -1.5934,-0.61298 -1.628,-5.53619 -0.05,-7.1142 0.9012,-0.90118 13.5922,-1.2 50.9648,-1.2 49.0489,0 49.7806,0.0293 50.8554,2.03777 1.4801,2.7655 0.3971,5.64069 -2.388,6.3397 -2.7456,0.68911 -97.5833,0.62874 -99.3822,-0.0633 z m 723.36419,-1.84282 c -1.0614,-1.06144 -1.2776,-2.20752 -0.7075,-3.75 l 0.8211,-2.22138 49.3861,-0.5 c 27.1624,-0.275 50.1736,-0.14667 51.1361,0.28518 2.0043,0.89929 2.3282,4.73656 0.55,6.51482 -0.9008,0.90083 -13.473,1.2 -50.4286,1.2 -42.835,0 -49.4271,-0.19853 -50.7572,-1.52862 z M 688.94421,679.62338 c -38.4235,-2.91419 -40.5021,-3.15073 -41.75,-4.75105 -1.5663,-2.00873 -1.5596,-2.41511 0.077,-4.65402 1.2799,-1.75029 2.2767,-1.7535 27.75,-0.0893 14.5324,0.94942 27.435,2.12074 28.6725,2.60295 1.4354,0.55931 2.25,1.71719 2.25,3.19817 0,3.07568 -1.8214,4.75635 -4.95,4.5676 -1.4025,-0.0846 -6.825,-0.47807 -12.05,-0.87435 z m 629.74999,-2.06008 c -0.9625,-0.55611 -1.75,-2.09792 -1.75,-3.42624 0,-1.32832 0.7875,-2.82642 1.75,-3.32911 2.2346,-1.1671 54.6028,-5.6187 56.6874,-4.81877 1.6622,0.63785 2.0716,4.31187 0.7182,6.44478 -0.9385,1.47916 -2.2896,1.64178 -31.1556,3.75006 -11.825,0.86367 -22.175,1.75482 -23,1.98034 -0.825,0.22553 -2.2875,-0.0449 -3.25,-0.60106 z M 695.94421,637.67033 c -4.125,-0.97664 -15.15,-3.44483 -24.5,-5.48486 -9.35,-2.04003 -17.5625,-4.17481 -18.25,-4.74397 -1.7242,-1.42745 -1.5657,-4.28301 0.3249,-5.85209 1.7465,-1.44941 1.5261,-1.48346 29.4251,4.54614 8.525,1.84244 18.0889,3.86947 21.2531,4.5045 6.4255,1.28954 8.5999,3.54921 6.7469,7.01152 -1.3202,2.4668 -4.6427,2.47095 -15,0.0188 z m 616.24999,-0.14215 c -1.923,-1.96392 -1.4881,-4.68055 1,-6.24739 2.1794,-1.37246 50.909,-12.62922 54.6708,-12.62922 1.9442,0 3.0792,1.85139 3.0792,5.02277 0,2.53633 -1.2549,3.13856 -9.4397,4.53009 -3.8832,0.6602 -14.9353,3.073 -24.5603,5.36178 -22.6927,5.39623 -23.2572,5.48659 -24.75,3.96197 z m 41.25,-9.87661 c 0.3399,-0.55 0.1415,-1 -0.441,-1 -0.5825,0 -1.059,0.45 -1.059,1 0,0.55 0.1984,1 0.441,1 0.2425,0 0.7191,-0.45 1.059,-1 z M 693.13541,592.56209 c -13.9143,-4.89373 -26.1745,-9.36641 -27.2449,-9.93929 -3.4581,-1.85069 -1.8121,-6.97123 2.2409,-6.97123 2.3303,0 50.8686,16.80143 52.536,18.1852 0.7023,0.58283 1.2768,2.11375 1.2768,3.40206 0,5.01915 -2.3041,4.64511 -28.8088,-4.67674 z m 608.41859,6.21081 c -1.9353,-2.13846 -2.07,-4.49456 -0.339,-5.93112 1.597,-1.32543 20.8265,-8.45397 39.4553,-14.62645 15.0322,-4.98079 18.2739,-5.17926 18.2739,-1.11882 0,3.00571 -1.2602,3.95447 -8.5,6.39939 -9.2557,3.12568 -33.241,11.69554 -40.6402,14.52058 -6.345,2.42252 -6.7118,2.45615 -8.25,0.75642 z m 53.7872,-22.95467 c 0.2832,-0.45833 -0.1204,-0.83333 -0.897,-0.83333 -0.7766,0 -1.1803,0.375 -0.897,0.83333 0.2833,0.45834 0.6869,0.83334 0.897,0.83334 0.2101,0 0.6137,-0.375 0.897,-0.83334 z M 709.26271,552.74635 c -13.1002,-6.54626 -24.6723,-12.55059 -25.7159,-13.34295 -2.9293,-2.22405 -1.461,-6.76756 2.1665,-6.70394 1.502,0.0263 13.5309,5.53885 26.7309,12.25 21.6523,11.00845 24.0303,12.46454 24.31,14.88485 0.2154,1.86505 -0.2971,3.00759 -1.6816,3.74854 -1.6641,0.89064 -5.9061,-0.8904 -25.8099,-10.8365 z m 575.88149,9.70522 c -1.6058,-1.60582 -1.5186,-4.29074 0.1854,-5.70491 1.4816,-1.22958 31.3482,-16.14598 43.3387,-21.64474 6.9668,-3.19498 7.3009,-3.25069 9.3831,-1.56464 4.1451,3.35652 1.3614,5.41381 -24.5612,18.15213 -13.3887,6.57919 -24.9738,11.96216 -25.7446,11.96216 -0.7708,0 -1.9414,-0.54 -2.6014,-1.2 z M 733.94421,518.11724 c -10.175,-6.80698 -18.3763,-12.87988 -18.2252,-13.49533 0.1511,-0.61545 -0.2123,-0.81794 -0.8077,-0.44998 -0.5954,0.36796 -2.8841,-0.52319 -5.0859,-1.98033 -3.2106,-2.12464 -3.9418,-3.16317 -3.6923,-5.24383 0.6636,-5.53344 2.8403,-5.14216 14.9549,2.68831 35.0638,22.66399 35.9634,23.31674 35.6518,25.86849 -0.1626,1.33107 -1.1956,2.99813 -2.2956,3.70456 -1.7984,1.15497 -3.8646,0.037 -20.5,-11.09189 z m 530.38679,8.93931 c -0.4942,-1.9689 -0.077,-3.14639 1.7309,-4.88027 2.1934,-2.10401 42.5958,-28.0938 45.2663,-29.11858 0.6454,-0.24765 2.0605,0.23497 3.1447,1.07247 1.957,1.51171 1.9563,1.53552 -0.1044,3.2912 -1.1416,0.97266 -2.8465,2.94483 -3.7885,4.38261 -0.9421,1.43778 -8.333,6.80721 -16.4243,11.93207 -8.0914,5.12486 -16.8444,10.80239 -19.4513,12.61673 -5.8883,4.09822 -9.4606,4.34058 -10.3734,0.70377 z m 48.6095,-26.90104 c 1.2897,-1.37283 2.5653,-2.27569 2.8346,-2.00634 0.4877,0.48772 -3.6659,4.5024 -4.6582,4.5024 -0.2868,0 0.5339,-1.12323 1.8236,-2.49606 z m -542.31619,-6.12527 c -2.5565,-1.99174 -4.3608,-4.08627 -4.0096,-4.65451 0.3512,-0.56825 0.17,-0.74361 -0.4027,-0.38968 -1.296,0.80099 -3.5233,-1.71724 -2.5091,-2.83682 0.4077,-0.45007 0.1885,-0.50057 -0.4872,-0.11221 -1.4391,0.82708 -7.4454,-3.29502 -6.6579,-4.56926 0.2943,-0.47616 0.1034,-0.7421 -0.4243,-0.59097 -1.2194,0.34925 -22.8984,-17.02491 -23.6335,-18.94057 -0.8659,-2.25654 1.2954,-5.28465 3.772,-5.28465 1.3255,0 5.5798,2.7867 10.3049,6.75 4.4262,3.7125 13.3567,11.025 19.8457,16.25 6.489,5.225 12.4109,10.09464 13.1599,10.82143 2.6644,2.5855 0.9534,7.17857 -2.6742,7.17857 -0.8997,0 -3.7275,-1.6296 -6.284,-3.62133 z m 470.98659,2.95466 c -0.3667,-0.36667 -0.6667,-1.89581 -0.6667,-3.39809 0,-2.34016 2.9447,-5.14532 20.5579,-19.58333 11.3069,-9.26855 21.5829,-16.98716 22.8356,-17.15247 2.7992,-0.36937 4.9815,2.04373 4.1675,4.60826 -0.3323,1.04702 -4.307,4.85892 -8.8326,8.4709 -4.5256,3.61197 -13.8534,11.31175 -20.7284,17.11061 -11.3499,9.57329 -15.3877,11.88977 -17.3333,9.94412 z M 782.82611,449.44366 c -9.56,-10.01435 -26.0444,-27.19243 -36.6319,-38.17351 -19.8043,-20.54051 -21.6411,-23.2685 -17.25,-25.61858 2.6447,-1.4154 4.6156,-0.28654 9.9432,5.69521 2.3536,2.64263 11.7667,12.4598 20.9181,21.81593 27.7449,28.36584 46.6203,48.4902 46.9713,50.0792 0.1829,0.82816 -0.2097,2.15912 -0.8724,2.9577 -2.9369,3.53868 -5.438,1.72277 -23.0783,-16.75595 z m 432.11099,16.19466 c -1.3799,-2.57828 -0.8846,-3.38032 7.351,-11.90369 6.3229,-6.54389 8.6807,-8.54999 7.1632,-6.09452 -0.3571,0.57776 0.069,0.72771 1.0248,0.36084 1.3144,-0.50439 1.3737,-0.80082 0.3019,-1.50886 -1.0464,-0.69125 -0.8265,-1.30664 1.0203,-2.85548 1.2948,-1.08588 2.8269,-1.68221 3.4046,-1.32517 0.6184,0.38224 0.753,0.16817 0.3273,-0.52063 -0.9272,-1.50036 11.2726,-14.32502 12.799,-13.45448 0.6133,0.34974 0.7765,0.26276 0.3628,-0.19329 -0.4137,-0.45604 -0.01,-1.6516 0.9018,-2.65679 1.357,-1.49944 1.941,-1.60379 3.2522,-0.58115 1.3565,1.05801 1.4224,1.01968 0.4354,-0.25353 -0.9619,-1.24075 2.0627,-4.82726 17.5,-20.75099 16.0299,-16.53514 18.9847,-19.16269 20.9445,-18.62509 1.2549,0.34425 2.7479,1.49718 3.3178,2.56206 0.8986,1.67903 -0.6655,3.68775 -11.7772,15.12509 -32.058,32.99761 -44.5496,45.87603 -53.2889,54.93893 -9.8098,10.17302 -12.889,11.75694 -15.0405,7.73675 z m 25.0071,-24.53097 c 0,-0.11599 -0.6,-0.70885 -1.3333,-1.31746 -0.9964,-0.82691 -1.3334,-0.77361 -1.3334,0.21089 0,0.7246 0.6,1.31745 1.3334,1.31745 0.7333,0 1.3333,-0.0949 1.3333,-0.21088 z m 1.1275,-4.20578 c 1.2439,-1.58606 1.2085,-1.62143 -0.3775,-0.37756 -0.9625,0.75485 -1.75,1.54235 -1.75,1.75 0,0.82304 0.8212,0.29331 2.1275,-1.37244 z m 3.8725,-1.75 c 0,-0.825 -0.1769,-1.5 -0.393,-1.5 -0.2162,0 -0.6521,0.675 -0.9686,1.5 -0.3166,0.825 -0.1398,1.5 0.393,1.5 0.5327,0 0.9686,-0.675 0.9686,-1.5 z m 10.4573,-6.4309 c 0.3164,-0.512 0.193,-1.16721 -0.2743,-1.45602 -0.4673,-0.28881 -0.8497,0.1301 -0.8497,0.93091 0,1.68616 0.3154,1.83349 1.124,0.52511 z m -429.56919,8.1809 c -9.3134,-12.30444 -24.8251,-35.54284 -24.2963,-36.39856 0.3063,-0.49555 0.062,-0.77735 -0.5428,-0.62622 -0.6048,0.15113 -1.8704,-0.96755 -2.8124,-2.48594 -2.0763,-3.34655 -0.8462,-6.08056 2.942,-6.53908 2.115,-0.256 3.4249,1.05905 8.9647,9 3.5683,5.11489 10.4684,14.9248 15.3335,21.7998 4.8651,6.875 8.8481,13.0427 8.8511,13.70601 0,0.6633 0.3333,1.00339 0.734,0.75574 1.2128,-0.74956 1.7296,1.89211 0.839,4.28825 -1.5446,4.15503 -5.1807,2.88401 -10.0128,-3.5 z m 358.08729,4.22038 c -1.7473,-2.10538 -0.6761,-4.19419 9.3778,-18.28602 4.5849,-6.4264 11.2921,-15.98441 14.9049,-21.24003 8.1128,-11.80197 8.9985,-12.60406 12.2715,-11.11279 2.9056,1.32388 3.1519,3.77311 0.7204,7.16372 -5.1204,7.14008 -17.2948,24.81819 -23.5843,34.24604 -6.0694,9.09795 -7.5677,10.74264 -9.7933,10.75 -1.4451,0.005 -3.1988,-0.67963 -3.897,-1.52092 z m -30.2254,-18.55048 c -0.9625,-0.56061 -1.75,-1.8828 -1.75,-2.9382 0,-1.69044 7.7767,-16.9263 19.6443,-38.48649 2.1206,-3.85263 4.7469,-8.69273 5.8362,-10.75578 2.113,-4.00185 4.8389,-5.54916 6.8442,-3.88494 2.7616,2.29194 1.5049,6.30706 -6.6814,21.34763 -4.5796,8.41383 -10.436,19.21652 -13.0144,24.00598 -4.4966,8.35261 -6.9927,11.82681 -8.4503,11.76149 -0.3733,-0.0167 -1.4661,-0.48909 -2.4286,-1.04969 z m -293.03999,-1.68789 c -3.0213,-3.33851 -7.2354,-14.29278 -4.9565,-12.88441 0.4143,0.25611 0.7703,-0.81081 0.7911,-2.37091 0.021,-1.56011 -0.2872,-2.63575 -0.6843,-2.39031 -0.7097,0.43858 -2.3149,-1.44608 -2.345,-2.75305 -0.01,-0.36667 -0.292,-0.94341 -0.6303,-1.28165 -1.1086,-1.10861 -0.3776,2.89413 0.9649,5.28396 1.0996,1.95733 0.9341,4.41015 -0.2079,3.08102 -0.6444,-0.75007 -11.6195,-21.22623 -15.9116,-29.68621 -4.4652,-8.80118 -4.451,-11.36854 0.066,-12.04274 2.6369,-0.39355 3.5237,1.00473 19.076,30.08016 10.2078,19.08354 12.0068,23.08862 11.1177,24.75 -1.3172,2.4613 -5.1449,2.57389 -7.2805,0.21414 z m -3.3739,-19.98201 c 0.2497,-0.4125 -0.1451,-1.30348 -0.8774,-1.97996 -1.0759,-0.99396 -1.3027,-0.85005 -1.1822,0.75 0.1499,1.99037 1.2144,2.62604 2.0596,1.22996 z m -3.9391,-6.08334 c 0.2833,-0.45833 -0.1204,-0.83333 -0.897,-0.83333 -0.7766,0 -1.1802,0.375 -0.897,0.83333 0.2833,0.45834 0.6869,0.83334 0.897,0.83334 0.2101,0 0.6138,-0.375 0.897,-0.83334 z m -5.1287,-5.90982 c -0.4214,-1.09836 -0.7225,-1.13989 -1.3149,-0.18137 -0.4226,0.68374 -0.5223,1.8842 -0.2217,2.66769 0.4215,1.09836 0.7226,1.13989 1.315,0.18137 0.4225,-0.68374 0.5223,-1.8842 0.2216,-2.66769 z m 272.93169,17.54316 c -0.66,-0.66 -1.2,-1.7243 -1.2,-2.36511 0,-2.46235 11.7733,-30.33224 12.5263,-29.65227 0.4369,0.39456 0.4845,0.17733 0.1058,-0.48272 -0.7693,-1.34101 7.755,-24.03484 9.8236,-26.15268 1.7177,-1.75861 5.2539,-0.63736 6.0668,1.92358 0.3991,1.25752 -2.265,9.27522 -7.3762,22.19885 -4.4006,11.12669 -8.9918,22.93035 -10.2028,26.23035 -3.2428,8.8369 -6.4633,11.58025 -9.7435,8.3 z m 15.8,-27.8 c 0,-0.55 -0.4766,-1 -1.059,-1 -0.5825,0 -0.7809,0.45 -0.441,1 0.3399,0.55 0.8165,1 1.059,1 0.2425,0 0.441,-0.45 0.441,-1 z m 0.6667,-9.53167 c 0,-2.08607 -2.4041,-2.58051 -2.9218,-0.60091 -0.2896,1.10747 0.1543,1.7747 1.2348,1.8561 0.9278,0.0699 1.687,-0.49495 1.687,-1.25519 z m -244.36769,35.33047 c -3.0667,-6.46044 -8.2628,-22.04834 -7.6696,-23.00819 0.3848,-0.62251 0.2242,-0.81816 -0.37,-0.45091 -1.4657,0.90583 -13.6213,-29.62397 -12.8112,-32.17634 0.7239,-2.28102 3.6003,-3.27539 5.8433,-2.0201 2.073,1.16006 22.9637,54.02606 22.5376,57.03348 -0.4817,3.39997 -5.9952,3.85545 -7.5301,0.62206 z m -1.299,-13.7988 c 0,-0.55 -0.4981,-1 -1.107,-1 -0.6088,0 -0.8754,-0.60331 -0.5925,-1.34069 0.283,-0.73737 0.1247,-1.97136 -0.3517,-2.74219 -0.7574,-1.22558 -0.7792,0.62063 -0.063,5.33288 0.1719,1.13054 2.114,0.90086 2.114,-0.25 z m -4.3169,-9.1875 c -0.3192,-0.79774 -0.5561,-0.56078 -0.6041,0.60416 -0.043,1.05417 0.1929,1.6448 0.5252,1.3125 0.3323,-0.33229 0.3678,-1.19479 0.079,-1.91666 z m 198.10129,13.4375 c -1.6676,-1.9128 -1.7874,-1.32762 8.1391,-39.75 5.2879,-20.46795 5.3939,-20.71174 8.8349,-20.31561 1.5079,0.17358 2.5907,0.7153 2.4062,1.2038 -0.1845,0.48851 0.1476,1.18673 0.738,1.5516 0.7249,0.44806 -0.062,5.02873 -2.4252,14.1118 -1.9243,7.39663 -5.1326,19.89249 -7.1296,27.7686 -4.2771,16.86816 -6.4907,20.10157 -10.5634,15.42981 z m -155.99669,-0.5 c -2.2407,-1.75647 -4.9786,-14.52476 -3.6478,-17.01141 1.2208,-2.28107 0.1575,-3.82292 -1.179,-1.70963 -0.5116,0.80907 -0.9372,1.12603 -0.9456,0.70435 -0.01,-0.42168 -2.2653,-9.30167 -5.0153,-19.73331 -2.75,-10.43164 -5,-19.65878 -5,-20.50475 0,-0.84597 1.1416,-2.05829 2.5369,-2.69404 2.0453,-0.93187 2.8279,-0.86497 4.038,0.34515 1.5284,1.52837 15.4251,53.32964 15.4251,57.49843 0,1.25666 -0.8704,2.75067 -1.9343,3.32002 -2.4121,1.29092 -2.3535,1.29386 -4.278,-0.21481 z m -0.7877,-12.80902 c 0,-1.06754 -0.4766,-1.94098 -1.059,-1.94098 -0.5825,0 -0.7415,-0.5625 -0.3533,-1.25 0.5645,-1 0.4364,-1 -0.641,0 -0.9953,0.92385 -1.054,1.54271 -0.2249,2.37185 0.6171,0.61702 0.8556,1.81584 0.5301,2.66405 -0.3885,1.01251 -0.19,1.29384 0.5781,0.81913 0.6435,-0.39769 1.17,-1.59651 1.17,-2.66405 z m 118.19999,6.85902 c -1.8233,-1.82333 -1.4274,-7.04057 2.6659,-35.1266 3.7697,-25.86608 4.414,-28.06738 8.0269,-27.42215 3.0243,0.54011 3.5604,3.37418 2.3538,12.4422 -0.6446,4.8436 -2.3533,17.80655 -3.7973,28.80655 -1.444,11 -3.0909,20.5625 -3.6598,21.25 -1.3105,1.58366 -4.0315,1.608 -5.5895,0.05 z m -80.62859,-1.37143 c -0.8643,-0.86429 -1.5714,-2.01934 -1.5714,-2.56678 0,-0.54744 -0.9261,-6.9278 -2.058,-14.17857 -1.1319,-7.25077 -2.9258,-19.89437 -3.9866,-28.09689 -2.1019,-16.25345 -1.8146,-17.94179 2.959,-17.38689 2.9243,0.33993 2.4076,-1.88121 8.0957,34.80056 1.6631,10.725 3.2782,20.89326 3.5893,22.59614 0.9357,5.12345 -3.6108,8.24963 -7.028,4.83243 z m 43.42859,-3.21364 c -0.825,-0.28315 -1.8306,-1.00985 -2.2347,-1.61488 -0.4041,-0.60503 -0.7347,-24.95005 -0.7347,-54.10005 0,-29.15 0.3306,-53.49503 0.7347,-54.10006 1.1258,-1.68565 3.544,-2.22779 5.4847,-1.22963 1.6342,0.8405 1.75,4.50149 1.75,55.32969 0,50.8282 -0.1158,54.48918 -1.75,55.32969 -0.9625,0.49503 -2.425,0.66838 -3.25,0.38524 z m 0.01,-20.30117 c -0.7283,-3.08922 -0.8085,-2.89088 -0.8438,2.08624 -0.028,3.94091 0.2003,4.90861 0.8049,3.41376 0.4641,-1.14742 0.4816,-3.62242 0.039,-5.5 z"
       id="path2" />
  </g>
</svg>
