<?xml version="1.0" encoding="UTF-8" standalone="no"?>
<!-- Created with Inkscape (http://www.inkscape.org/) -->

<svg
   version="1.1"
   id="svg1"
   width="307.431"
   height="307.431"
   viewBox="0 0 307.431 307.431"
   sodipodi:docname="v2.png"
   xmlns:inkscape="http://www.inkscape.org/namespaces/inkscape"
   xmlns:sodipodi="http://sodipodi.sourceforge.net/DTD/sodipodi-0.dtd"
   xmlns="http://www.w3.org/2000/svg"
   xmlns:svg="http://www.w3.org/2000/svg">
  <defs
     id="defs1">
    <clipPath
       clipPathUnits="userSpaceOnUse"
       id="clipPath4">
      <circle
         style="fill:none;stroke:#000000;stroke-width:20.4802;stroke-dasharray:none;stroke-opacity:1"
         id="circle4"
         cx="248.07094"
         cy="468.78806"
         r="160.56258" />
    </clipPath>
  </defs>
  <sodipodi:namedview
     id="namedview1"
     pagecolor="#ffffff"
     bordercolor="#000000"
     borderopacity="0.25"
     inkscape:showpageshadow="2"
     inkscape:pageopacity="0.0"
     inkscape:pagecheckerboard="0"
     inkscape:deskcolor="#d1d1d1">
    <inkscape:page
       x="0"
       y="0"
       width="307.431"
       height="307.431"
       id="page2"
       margin="0"
       bleed="0" />
  </sodipodi:namedview>
  <g
     inkscape:groupmode="layer"
     inkscape:label="Image"
     id="g1"
     transform="translate(-97.614227,-314.84683)">
    <path
       style="fill:#bc5f24"
       d="M 233.36234,621.69804 C 183.21928,616.3281 137.7132,584.515 114.9163,538.89294 95.495094,500.02645 92.343064,457.47285 105.86853,416.74482 c 7.51197,-22.62011 18.76357,-40.73215 35.94754,-57.86582 63.7293,-63.54279 167.14904,-57.54075 224.24034,13.01394 12.06711,14.9128 21.72838,34.21859 27.27365,54.5 4.15956,15.21328 5.37888,24.881 5.36022,42.5 -0.0153,14.45221 -0.41226,18.8886 -2.6487,29.60155 -6.29519,30.1552 -19.27559,55.52576 -39.28276,76.77927 -18.60704,19.76617 -44.47126,35.31959 -70.06693,42.13466 -15.20389,4.04817 -38.26395,5.90303 -53.32955,4.28962 z m 20.1887,-37.3051 c -0.14416,-11.275 0.1168,-21.05982 0.57992,-21.74404 0.46313,-0.68422 5.76281,-2.62576 11.77708,-4.31454 20.53054,-5.76487 34.27039,-13.69904 47.08515,-27.18965 12.56125,-13.22373 20.84846,-27.385 26.33739,-45.00562 1.75545,-5.63538 3.7347,-11.37115 4.39832,-12.74615 l 1.20659,-2.5 18.46343,-0.5 18.46342,-0.5 -0.18766,-9.19715 c -0.62205,-30.48674 -13.72672,-62.73449 -35.0896,-86.34789 -16.81631,-18.58784 -44.59152,-34.0621 -71.16761,-39.64922 -14.65169,-3.08024 -36.73849,-3.514 -50.68732,-0.99544 -26.10174,4.71286 -50.91845,17.46276 -70.09224,36.01079 -13.83128,13.37986 -25.63744,31.97573 -32.59603,51.34193 -5.38206,14.97861 -9.55049,46.53934 -6.48299,49.08514 0.98196,0.81496 7.2194,1.29277 19.29482,1.47805 l 17.84378,0.27379 0.75426,2.5 c 3.75806,12.45619 6.60336,20.84067 9.59019,28.26022 1.9396,4.81812 3.2985,9.35446 3.0198,10.08075 -0.27871,0.7263 -7.30009,6.59937 -15.60307,13.05127 -8.30298,6.4519 -15.09633,12.30829 -15.09633,13.01421 0,3.41283 12.51704,19.71856 20.55346,26.77463 l 3.57627,3.14001 7.50845,-7.41055 c 4.12964,-4.0758 8.14957,-8.62398 8.93316,-10.10707 1.31125,-2.48176 1.23499,-2.9171 -0.95747,-5.46598 l -2.38218,-2.76946 -6.75119,5.76325 c -3.71315,3.16978 -7.45159,5.62835 -8.30765,5.46349 -1.85771,-0.35776 -10.17285,-10.30887 -10.17285,-12.17432 0,-1.42722 19.71093,-18.52582 23.15789,-20.08873 1.84056,-0.83453 2.62294,-0.35111 5.66442,3.5 1.94089,2.45756 7.83453,8.62183 13.09698,13.69838 11.355,10.95389 11.8198,8.30284 -4.66929,26.63197 -6.1875,6.87797 -11.25,12.95665 -11.25,13.50817 0,1.49401 15.73682,11.68244 23.43776,15.17421 8.78316,3.98248 23.69272,8.95555 26.84924,8.95555 2.47616,0 2.49653,-0.0755 3.20614,-11.88578 0.39278,-6.53718 0.42985,-12.78149 0.0824,-13.87626 -0.41198,-1.29803 -2.73403,-2.75701 -6.67483,-4.19389 -6.53882,-2.38418 -8.18952,-2.24144 -9.84467,0.85125 -1.21298,2.26647 -0.66865,2.97014 4.81259,6.22142 3.19881,1.89741 3.3351,2.2095 2.70366,6.1907 -1.10222,6.9494 -2.1041,7.28678 -11.17661,3.76376 -9.65186,-3.748 -18.28333,-8.61487 -19.11297,-10.77688 -0.71486,-1.8629 0.12432,-3.30847 8.097,-13.94792 7.87397,-10.50774 10.62479,-13.3464 12.9334,-13.3464 1.06641,0 5.85152,1.5654 10.63358,3.47867 4.78207,1.91327 11.68487,3.90214 15.33956,4.41971 3.65469,0.51757 7.11039,1.22872 7.67932,1.58034 0.66066,0.40831 1.03443,8.40553 1.03443,22.13256 v 21.49324 l 5.2254,-0.30226 5.22541,-0.30226 z m -24.98699,-45.02216 c -13.88976,-3.63889 -26.51319,-12.35146 -37.27081,-25.72396 -9.9448,-12.3621 -12.17399,-18.27102 -21.41092,-56.75388 -6.1552,-25.64379 -5.97306,-25.1644 -10.07519,-26.51822 -1.89122,-0.62416 -4.11498,-2.10053 -4.94169,-3.28081 -2.13915,-3.05407 -1.92071,-9.96298 0.40597,-12.84019 1.84603,-2.28281 2.49714,-2.37729 19.71457,-2.86078 l 17.8055,-0.5 0.84296,-3.5 c 3.97174,-16.49086 7.66674,-23.68199 16.59974,-32.30608 14.33969,-13.8438 33.00818,-18.71187 52.57085,-13.70858 10.27668,2.62833 16.75723,6.48993 24.70137,14.71892 8.60195,8.91038 12.51128,16.89285 14.59214,29.79574 l 0.80635,5 17.57892,0.5 c 12.82578,0.36481 18.02501,0.87109 19.22872,1.87244 1.17917,0.98093 1.64544,2.97781 1.6345,7 -0.0178,6.53349 -0.38918,7.28729 -4.67128,9.48092 -1.75262,0.89783 -3.46748,2.08691 -3.8108,2.64241 -0.34331,0.5555 -2.58632,9.27307 -4.98447,19.37239 -6.01366,25.32537 -10.0167,38.90354 -13.89512,47.13184 -4.05268,8.59797 -13.78454,20.86132 -21.41721,26.98833 -7.70189,6.18257 -20.13038,12.18184 -29.02119,14.0086 -10.1802,2.0917 -25.90829,1.85832 -34.98291,-0.51909 z m 34.79829,-17.0136 c 3.575,-1.03421 9.2,-3.50332 12.5,-5.48692 5.99768,-3.60515 12.5,-9.15734 12.5,-10.67349 0,-1.06698 -78.73447,-1.04248 -79.39403,0.0247 -1.51952,2.45862 11.42238,12.25679 20.16014,15.26302 11.59448,3.98908 22.5002,4.26709 34.23389,0.87268 z m 39.815,-43.32366 c 1.27325,-4.87268 2.07488,-9.48518 1.78139,-10.25 -0.44685,-1.16446 -9.61207,-1.39058 -56.36501,-1.39058 -37.98687,0 -56.1701,0.33872 -56.89115,1.05977 -1.22269,1.22269 3.17334,17.94068 5.04344,19.18006 0.61398,0.40691 24.29133,0.63191 52.61633,0.5 l 51.5,-0.23983 z m 6.80086,-29.40589 c 1.26485,-0.83278 5.23353,-17.18652 4.61852,-19.03154 -0.51877,-1.55632 -132.76931,-1.76467 -133.72973,-0.21068 -0.6221,1.00659 2.9479,15.04757 4.64209,18.25753 0.86441,1.63781 4.8481,1.74902 62.13844,1.73469 33.66815,-0.008 61.71696,-0.34592 62.33068,-0.75 z M 284.88808,410.3513 c 1.11064,-1.79706 -3.2904,-14.27648 -6.73265,-19.09086 -3.91727,-5.47875 -7.69459,-8.75395 -13.79309,-11.95957 -3.93135,-2.06648 -5.89226,-2.36807 -15.51753,-2.38666 -10.4582,-0.0202 -11.35717,0.14585 -17.70802,3.27073 -7.22782,3.55638 -12.44586,8.76249 -16.26195,16.22475 -2.7691,5.41491 -4.83508,12.65229 -3.99824,14.00632 0.85522,1.38377 73.15534,1.32055 74.01148,-0.0647 z m 0.79415,189.98787 c 5.01319,-1.67957 12.80062,-4.78096 17.3054,-6.89197 9.24085,-4.33041 22.37471,-12.52643 22.37471,-13.96266 0,-1.05039 -2.79083,-4.0916 -3.75475,-4.0916 -0.33654,0 -4.69189,2.46679 -9.67857,5.48176 -9.11213,5.50923 -23.66505,11.51824 -27.89547,11.51824 -3.18038,0 -4.67121,-1.84015 -4.67121,-5.76574 0,-5.08982 1.3887,-6.75857 7.71554,-9.27152 20.81247,-8.26644 32.43318,-16.56635 47.2013,-33.71274 2.9607,-3.4375 6.12011,-6.25 7.0209,-6.25 0.9008,0 3.15337,1.26524 5.00571,2.81165 4.34142,3.62438 3.86076,5.60565 -3.43086,14.14191 -5.63574,6.59774 -6.69643,9.81905 -3.97643,12.07645 1.28555,1.06691 2.04146,0.80139 4.63359,-1.62756 4.59784,-4.30841 14.61957,-17.06916 16.8705,-21.48135 l 1.96709,-3.8558 -2.75367,-1.96991 c -1.51452,-1.08345 -6.57795,-4.50186 -11.25207,-7.59646 l -8.49839,-5.62654 -2.50161,2.89513 c -1.37588,1.59232 -5.8766,6.84073 -10.0016,11.66312 -13.11256,15.32945 -24.58965,23.3952 -44.93113,31.57623 l -11.56887,4.65282 -0.2807,12.7807 c -0.38468,17.51494 -0.23085,17.64234 15.10059,12.50584 z M 137.79706,515.58193 c 4.7109,-4.02105 8.56528,-8.06238 8.56528,-8.98073 0,-0.91836 -1.41428,-5.62346 -3.14286,-10.4558 -2.38067,-6.65534 -3.65386,-8.91372 -5.25,-9.31244 -1.15892,-0.2895 -6.38214,-0.39444 -11.60714,-0.23319 l -9.5,0.29317 -0.32226,2.81047 c -0.53275,4.64621 1.20853,5.68953 9.49573,5.68953 h 7.42858 l 1.44898,3.46788 c 2.69603,6.45251 2.08959,7.94825 -5.05103,12.45796 -3.575,2.25782 -6.5,4.33761 -6.5,4.62176 0,2.23984 3.22025,7.54829 4.41585,7.27936 0.79948,-0.17983 5.30797,-3.61691 10.01887,-7.63797 z m 234.5301,4.87675 c 1.91461,-3.57749 1.0634,-5.01696 -5.36901,-9.07939 -7.20307,-4.54915 -7.86578,-5.55824 -6.58445,-10.02597 1.55914,-5.43638 2.53429,-5.96038 11.09203,-5.96038 7.54654,0 7.88339,-0.0992 8.4854,-2.49776 1.2713,-5.06523 0.36809,-5.50351 -11.30741,-5.48693 -5.92976,0.008 -11.34323,0.37208 -12.02993,0.80812 -1.21061,0.76872 -7.25145,17.27274 -7.25145,19.81149 0,1.54342 17.82737,14.12251 20.21482,14.26368 0.94315,0.0558 2.18065,-0.76902 2.75,-1.83286 z m 158.51659,1.54069 c -1.66023,-0.72341 -4.45341,-2.94945 -6.20708,-4.94676 -5.37974,-6.12719 -6.27433,-11.24316 -6.27433,-35.88161 v -21.85894 l 8.25,0.29044 8.25,0.29044 0.5,21 c 0.43291,18.18221 0.74581,21.36222 2.33191,23.69948 3.59685,5.30028 10.88336,5.63168 17.66407,0.80339 l 3.00402,-2.13906 V 481.2844 459.31206 l 8.25,0.29044 8.25,0.29044 v 31 31 h -7 c -6.30011,0 -7.0987,-0.22496 -7.98713,-2.25 -1.16838,-2.66314 -2.23217,-2.814 -4.61793,-0.65492 -4.50734,4.07909 -18.11185,5.75717 -24.41353,3.01135 z m 129.01859,-0.0238 c -3.72671,-1.66345 -8.03106,-6.17824 -9.43638,-9.89774 -1.51224,-4.00246 -1.31646,-13.30025 0.3471,-16.48456 4.08532,-7.81991 11.31701,-11.29625 24.92353,-11.98097 10.73019,-0.53996 11.75609,-1.17285 9.75038,-6.01505 -2.55788,-6.17528 -10.83935,-7.67856 -21.88479,-3.9726 -8.39552,2.81685 -8.90487,2.5311 -9.41751,-5.28314 -0.25514,-3.88922 0.0366,-4.52182 3.02935,-6.56806 4.59472,-3.1416 13.2752,-4.75258 21.49302,-3.98882 11.33084,1.05309 17.51765,4.73322 22.03688,13.1083 2.03652,3.77409 2.15842,5.32721 2.15842,27.5 v 23.5 h -7 c -6.49791,0 -7.02292,-0.16139 -7.31955,-2.25 -0.41009,-2.88749 -0.84648,-2.84488 -7.68045,0.75 -4.58742,2.41312 -6.90589,2.99234 -11.85155,2.96086 -3.38165,-0.0215 -7.49845,-0.64173 -9.14845,-1.37822 z m 20.20122,-13.68005 c 5.01961,-2.42995 6.54174,-4.72206 6.10869,-9.1988 -0.30844,-3.18861 -0.33916,-3.20519 -6.48263,-3.4995 -10.71311,-0.51323 -17.29734,4.17649 -14.49592,10.32493 2.13757,4.69144 8.11165,5.64496 14.86986,2.37337 z m 116.29878,13.98079 c -1.375,-0.54442 -4.20114,-2.64555 -6.28032,-4.66917 -5.94151,-5.78277 -6.71968,-9.94433 -6.71968,-35.93615 v -22.35894 l 8.25,0.29044 8.25,0.29044 0.5,21.67203 c 0.48404,20.97957 0.57444,21.75116 2.82894,24.14852 1.281,1.36207 3.531,2.71857 5,3.01445 3.609,0.72686 9.7008,-1.1698 12.7077,-3.95651 l 2.4634,-2.28299 v -21.58818 -21.58819 l 8.25,0.29044 8.25,0.29044 v 31 31 l -7.2201,0.29321 c -7.0038,0.28442 -7.2393,0.217 -7.8584,-2.25 -0.3511,-1.39877 -0.9271,-2.53751 -1.2799,-2.53054 -0.3529,0.007 -3.2925,1.35696 -6.5326,3 -4.7073,2.38715 -7.1182,2.9746 -12,2.92394 -3.3599,-0.0349 -7.23404,-0.50881 -8.60904,-1.05323 z m 61.61334,0.11709 c -2.6876,-0.48057 -5.2799,-1.26707 -5.7606,-1.74777 -0.4807,-0.4807 -0.7567,-20.64671 -0.6134,-44.81335 l 0.2607,-43.93935 6.4969,-0.30413 c 9.4737,-0.44347 10.0031,0.45159 10.0031,16.91491 0,7.08907 0.3375,12.87453 0.75,12.85657 0.4125,-0.0179 3.225,-0.90326 6.25,-1.96735 9.8074,-3.44991 19.1728,-2.11179 25.9759,3.71143 5.3085,4.54383 7.7141,9.41153 9.1207,18.45578 2.9703,19.09782 -2.9881,32.83754 -16.9742,39.14163 -3.7965,1.71121 -6.9453,2.12655 -17.6224,2.32445 -7.15,0.13252 -15.199,-0.15225 -17.8867,-0.63282 z m 28.1776,-15.39236 c 4.3259,-2.23701 7.3141,-7.66563 7.9174,-14.38327 0.6696,-7.45718 -0.9335,-13.1083 -4.758,-16.77247 -2.7389,-2.62396 -3.7745,-2.95237 -9.31,-2.95237 -4.2784,0 -7.0755,0.55508 -8.9343,1.77305 l -2.706,1.77306 v 15.50917 c 0,15.13116 0.055,15.53267 2.25,16.4736 3.0387,1.3025 11.8287,0.4989 15.5409,-1.42077 z m -449.33319,14.14189 c -0.26371,-0.6875 -0.36209,-21.05 -0.21861,-45.25 l 0.26086,-44 19,0.0259 c 17.19252,0.0234 19.64352,0.2457 25.76453,2.33636 18.52707,6.32802 28.75926,21.80153 28.7236,43.43695 -0.0369,22.37746 -13.1055,39.23617 -33.78735,43.58619 -7.60877,1.60036 -39.1184,1.493 -39.74303,-0.13541 z m 41.15623,-17.31834 c 21.17726,-10.88187 18.08676,-47.39169 -4.65093,-54.94393 -3.08023,-1.02309 -7.34616,-1.47529 -12.10929,-1.28363 l -7.35376,0.2959 -0.26579,28.37851 c -0.19998,21.35215 0.0394,28.74631 0.96706,29.86401 0.96648,1.16453 3.01263,1.39208 9.47012,1.05315 6.59973,-0.3464 9.37146,-1.01515 13.94259,-3.36401 z m 108.00777,17.02503 c -0.93857,-2.44588 -0.7159,-86.75998 0.23308,-88.25604 0.57837,-0.91179 2.87777,-1.21006 7.7092,-1 9.51877,0.41386 9.40295,0.0813 9.42123,27.04935 0.008,11.9625 0.35224,21.73826 0.76474,21.72391 0.4125,-0.0143 5.01629,-4.73935 10.23065,-10.5 l 9.48064,-10.47391 h 9.26936 c 5.09814,0 9.26935,0.34393 9.26935,0.76428 0,0.42036 -5.4316,6.52368 -12.07022,13.56293 -10.63417,11.27593 -11.91314,12.99864 -10.75,14.4796 0.72612,0.92452 7.05772,8.58187 14.07022,17.01633 7.0125,8.43445 12.75,15.74971 12.75,16.25612 0,0.50641 -4.50288,0.92074 -10.00641,0.92074 h -10.0064 l -10.71522,-13 c -5.89337,-7.15 -11.05204,-13 -11.46372,-13 -0.41167,0 -0.87444,5.7375 -1.02837,12.75 l -0.27988,12.75 -8.12825,0.28848 c -6.74518,0.23938 -8.23404,0.0128 -8.75,-1.33179 z m 128.85225,0.33565 c -0.27265,-0.71079 -0.37834,-21.09234 -0.23486,-45.29234 l 0.26086,-44 6.63549,-0.29308 c 9.71711,-0.42919 9.86451,-0.17719 9.86451,16.86451 0,8.9748 0.36982,13.92857 1.03984,13.92857 0.57191,0 2.93441,-1.00207 5.25,-2.22682 5.83572,-3.08661 17.47585,-3.17895 23.21016,-0.18412 5.29094,2.76327 9.25878,8.61023 10.51959,15.50153 0.56256,3.07483 0.90079,14.77483 0.75162,26 l -0.27121,20.40941 h -8 -8 l -0.5,-21.04746 c -0.42873,-18.04741 -0.7569,-21.43904 -2.3023,-23.79464 -3.57804,-5.45387 -11.92609,-6.00929 -18.21573,-1.21194 l -3.44317,2.62623 -0.2694,21.7139 -0.2694,21.71391 -7.76514,0.29234 c -5.6442,0.21249 -7.90054,-0.0607 -8.26086,-1 z"
       id="path2"
       clip-path="url(#clipPath4)"
       sodipodi:nodetypes="ssssssssssssssssscccsssssssscsssssscssscsssssssssssssssssssssssscccsssssssscssssscssssssssssssssssssssssscssssscssssssssssssssssssssssssscsscssscssssssscsscsssssssssscssssssscccssscccccccssssssssssssssscssssssssssssscccsssscccccccsssssssssscsssssssssssssscssssscssssssssscsssssssssscssssssscssscsssscssssssscccssscccss" />
  </g>
</svg>
